<svg width="63" height="63" viewBox="0 0 63 63" fill="none" xmlns="http://www.w3.org/2000/svg">
<circle cx="31.5" cy="31.5" r="31.5" fill="#E0E8EE"/>
<mask id="mask0_60_1418" style="mask-type:alpha" maskUnits="userSpaceOnUse" x="17" y="17" width="30" height="30">
<rect x="17" y="17" width="30" height="30" fill="#D9D9D9"/>
</mask>
<g mask="url(#mask0_60_1418)">
<path d="M23.25 43.25C22.5625 43.25 21.974 43.0052 21.4844 42.5156C20.9948 42.026 20.75 41.4375 20.75 40.75V23.25C20.75 22.5625 20.9948 21.974 21.4844 21.4844C21.974 20.9948 22.5625 20.75 23.25 20.75H40.75C41.4375 20.75 42.026 20.9948 42.5156 21.4844C43.0052 21.974 43.25 22.5625 43.25 23.25V40.75C43.25 41.4375 43.0052 42.026 42.5156 42.5156C42.026 43.0052 41.4375 43.25 40.75 43.25H23.25ZM24.5 38.25H39.5L34.8125 32L31.0625 37L28.25 33.25L24.5 38.25Z" fill="#2A43FD"/>
</g>
</svg>
