<?xml version="1.0" encoding="utf-8"?>
<!-- Generator: Adobe Illustrator 28.0.0, SVG Export Plug-In . SVG Version: 6.00 Build 0)  -->
<svg version="1.1" id="Capa_1" xmlns="http://www.w3.org/2000/svg" xmlns:xlink="http://www.w3.org/1999/xlink" x="0px" y="0px"
	 viewBox="0 0 1417.3 850.4" style="enable-background:new 0 0 1417.3 850.4;" xml:space="preserve">
<style type="text/css">
	.st0{fill:#FFFFFF;}
</style>
<g>
	<path class="st0" d="M712,413.1c8.7-5.6,13-12.8,11.6-22.6c-1.7-11.8-12.1-21-25.8-21.6c-17.3-0.7-34.6-0.5-51.9-0.7
		c-0.8,0-1.5,0.4-2.3,0.6c0,31.4,0,62.7,0,94.1c1.2,0.2,2.2,0.4,3.1,0.4c16,0,32,0.1,47.9-0.1c3.4,0,7-0.7,10.3-1.7
		c15.5-4.6,24.4-18.1,21.3-31.9C724.7,421.7,718.7,417.4,712,413.1z M667.1,389.7c9.7,0,19.3-0.2,28.8,0.1c3.4,0.1,5.5,2.7,5.4,6.5
		c-0.1,4.1-2,7.8-6,8c-9.3,0.6-18.7,0.2-28.2,0.2C667.1,399.4,667.1,394.8,667.1,389.7z M699.9,441.3c-2.3,0.9-4.9,1.3-7.3,1.3
		c-8.3,0.2-16.6,0.1-25.4,0.1c0-5.9,0-11.2,0-16.9c10.7,0,21.2-0.2,31.6,0.1c3.6,0.1,6.1,2.9,6.3,6.7
		C705.4,436.6,703.7,439.8,699.9,441.3z"/>
	<path class="st0" d="M815.9,412.3c-5.1-19-23.8-31.3-43.4-29c-5.2,0.6-10.1,2.1-14.5,4.2V383h-22.2v38.6c-0.4,12.5-0.2,25-0.2,37.5
		c0,1.8,0.2,3.5,0.3,5.2c7.6,0,14.7,0,22.3,0c0-2.2,0-4,0-5.8c0-11.5,0-23,0.1-34.5c0.1-8.1,2.8-14.8,10.6-18.3
		c12.4-5.5,25.3,1.8,26.1,15.4c0.7,11.3,0.3,22.6,0.3,34c0,3.1,0,6.2,0,9.4c7.7,0,14.6,0,22.4,0c0-13.3,0.1-26.1-0.1-38.9
		C817.3,421.2,817,416.6,815.9,412.3z"/>
	<path class="st0" d="M893,413.7c8.7-5.6,13-12.8,11.6-22.6c-1.7-11.8-12.1-21-25.8-21.6c-17.3-0.7-34.6-0.5-51.9-0.7
		c-0.8,0-1.5,0.4-2.3,0.6c0,31.4,0,62.7,0,94.1c1.2,0.2,2.2,0.4,3.1,0.4c16,0,32,0.1,47.9-0.1c3.4,0,7-0.7,10.3-1.7
		c15.5-4.6,24.4-18.1,21.3-31.9C905.6,422.3,899.7,418,893,413.7z M848.1,390.3c9.7,0,19.3-0.2,28.8,0.1c3.4,0.1,5.5,2.7,5.4,6.5
		c-0.1,4.1-2,7.8-6,8c-9.3,0.6-18.7,0.2-28.2,0.2C848.1,400,848.1,395.4,848.1,390.3z M880.8,441.9c-2.3,0.9-4.9,1.3-7.3,1.3
		c-8.3,0.2-16.6,0.1-25.4,0.1c0-5.9,0-11.2,0-16.9c10.7,0,21.2-0.2,31.6,0.1c3.6,0.1,6.1,2.9,6.3,6.7
		C886.3,437.2,884.6,440.4,880.8,441.9z"/>
	<path class="st0" d="M1190.3,363.1c0-1.6-0.2-3.2-0.3-4.7c-7.5,0-14.5,0-21.9,0c0,9.6,0,18.8,0,26.8c-8.1-1.3-15.5-3.5-22.9-3.4
		c-17.2,0.3-30.5,8.2-37.4,24.4c-6.5,15.2-5.1,29.9,5.8,43.1c12,14.5,30.4,19.6,47.7,13.4c16.3-5.8,29.7-22.4,29.1-41.2
		C1189.8,402.1,1190.3,382.6,1190.3,363.1z M1146.7,444.1c-11.3-0.2-20.6-9.5-20.6-20.9c0-11.6,9.4-20.9,21.1-20.7
		c11.7,0.2,21.3,9.6,21.2,20.8C1168.4,434.8,1158.6,444.3,1146.7,444.1z"/>
	<path class="st0" d="M1092.1,358.1c-7.1,0-13.9,0-21.3,0c0,9.6,0,18.8,0,28.6c-1.8-0.8-2.9-1.2-3.9-1.6
		c-15.1-6.3-29.4-4.7-42.6,4.6c-13.6,9.7-19.1,23.4-16.7,39.7c3.1,21.8,23.9,37.4,46.5,35.6c21.8-1.7,38.7-20,38.7-42.2
		c0-20.3-0.2-40.7-0.3-61C1092.5,360.7,1092.3,359.5,1092.1,358.1z M1050.1,443.8c-12.2-0.2-21.2-9.3-20.9-21.2
		c0.3-11.2,9.7-20.2,21.2-20.2c11.9,0.1,21.1,9.3,20.9,20.8C1071.1,435,1061.9,444,1050.1,443.8z"/>
	<path class="st0" d="M998.2,383.9c-7.6,0-14.7,0-22.3,0c0,2.2,0,4,0,5.8c0,11.5,0,23-0.1,34.5c-0.1,8.1-2.8,14.8-10.6,18.3
		c-12.4,5.5-25.3-1.8-26.1-15.4c-0.7-11.3-0.3-22.6-0.3-34c0-3.1,0-6.2,0-9.4c-7.7,0-14.6,0-22.4,0c0,13.3-0.1,26.1,0.1,38.9
		c0.1,4.5,0.4,9,1.5,13.3c5.1,19,23.8,31.3,43.4,29c20.8-2.5,36.1-18.2,36.7-38.3c0.4-12.5,0.2-25,0.2-37.5
		C998.4,387.3,998.3,385.6,998.2,383.9z"/>
	<path class="st0" d="M1274.1,383.5c-5.5,0.1-12.3-1.7-16,0.9c-3.8,2.6-4.6,9.6-6.6,14.7c-4.1,10.3-8.1,20.6-12.6,32
		c-1.2-2.8-2-4.4-2.6-6.1c-4.8-12.6-9.5-25.2-14.4-37.7c-0.6-1.5-2.4-3.6-3.7-3.7c-7.4-0.4-14.9-0.2-23-0.2c1.7,4,3.2,7.5,4.7,11
		c8.2,18.6,16.4,37.1,24.6,55.7c4.5,10.3,0.3,16.8-11.1,17.3c-1.6,0.1-3.2,0.1-5.7,0.3c1.7,4.8,3.5,9.1,4.8,13.5
		c1.2,4.5,4,5.4,8.2,4.8c12.8-1.7,20.6-9.2,25.5-20.5c7.2-16.8,14.4-33.6,21.6-50.5c4.4-10.2,8.6-20.5,13.3-31.5
		C1278,383.5,1276,383.5,1274.1,383.5z"/>
	<path class="st0" d="M538.4,403.1c-12.1,17.8-21,37.3-25.9,58.1c-5.1,21.8-7.6,44.2-11.4,66.4c-0.8,4.6,1.9,6.7,5.1,8.6
		c6.9,4.1,13.9,8,21.1,12.2c1.6,0.9,1.9,3,0.8,4.4c-12.7,15.8-27.9,28.6-45,40.1c-2,1.4-4.8-0.3-4.5-2.7c0.3-3,0.5-5.7,0.6-8.4
		c1.1-28.6-8.3-53.3-27.9-74.1c-1-1-3-2.3-4-1.9c-6.1,2.3-12.1,4.8-18.3,7.4c-1.7,0.7-2.3,2.7-1.3,4.2c0.9,1.5,1.8,2.9,2.6,4.3
		c17.2,30.4,15.3,61.5,3.2,92.9c-0.5,1.4-2.4,2.7-3.9,3.2c-39,11.7-78.1,12-117.1,0c-1.8-0.5-3.9-2.3-4.5-4
		c-8.8-21.6-12.5-43.8-7.1-66.9c2.4-10.5,6.6-20.2,12.7-29.2c1.1-1.6,0.4-3.7-1.4-4.4c-6.9-2.5-13.6-5-20.3-7.1
		c-1-0.3-3,0.8-3.9,1.8c-10.4,11.8-18.1,25.1-22.5,40.2c-3.9,13.3-4.5,26.8-3.5,40.8c0.2,2.4-2.5,4-4.5,2.6c0,0,0,0,0,0
		c-25.1-17.1-46.3-37.9-61.6-64.5c-23.5-40.9-31.7-84.6-23.8-130.9c6.9-40.8,26.2-75.3,55-105c34.7-35.8,77-56.2,126.3-59.7
		c77.6-5.5,139.1,25.4,184.4,88.1c9.5,13.2,16.3,28.3,24.4,42.8c0.5,0.9,1.5,1.5,2.5,1.5h15.6c2.1,0,3.5-2.1,2.7-4
		c-2.4-6.2-4.6-11.9-7.2-17.5c-45.6-99.4-148.2-151.4-253.9-128.3c-107.4,23.5-185,124.1-174.2,236.2c4.6,47.1,22.2,88.6,54.2,123
		c56.4,60.5,126.8,85.8,208.1,70.9c78.1-14.4,133.5-56.8,164.9-125c0.7-1.5-0.1-3.4-1.7-3.9c-12.4-4.4-32.6-13.9-46.7-32
		c-0.7-0.9-0.8-2.1-0.3-3.1l8.2-15.8c2.1-4.1,7.7-4.7,10.6-1.1c6.7,8.4,19.4,21,38.6,26.5c1.5,0.4,3.1-0.4,3.6-1.9
		c0.4-1.1,0.7-2.3,1.1-3.4c1.9-6.2,3-12.6,4.4-19c0.3-1.3-0.4-2.7-1.6-3.3c-4-1.8-7.6-3.4-11.2-5.2c-13.5-6.9-25.6-15.6-34.4-28.2
		c-0.9-1.2-1.5-3.8-0.9-4.8c3.4-5.2,6.9-10.2,10.6-15.5c2.6-3.7,8-3.5,10.4,0.2c7.2,11.1,16.7,18.8,28.9,24.5c1.9,0.9,4-0.5,4.1-2.5
		c0.6-14.8,1.1-28.9,1.6-42.9c0-1.3-0.7-2.4-1.9-2.8C573.8,376.2,553.1,381.5,538.4,403.1z"/>
	<path class="st0" d="M474.5,420.2c-11.2-10.5-21.6-21.7-32.6-32.4c-12.6-12.3-27.7-14-44-9.9c-11,2.8-19.6,9.5-27.4,17.8
		c-2.1-2-4.2-3.7-6-5.7c-14.5-15.6-47.6-22-68.5,0.4c-18,19.4-36.5,38.4-59.8,53.5c4.2,5,7.8,10,12.2,14.2
		c32.2,31,71.5,45.3,115.5,47.8c38.3,2.2,72.9-9.7,105.1-29.4c12-7.3,22.5-16.5,31.2-27.8c2.7-3.5,2.9-5.7-1.3-8.8
		C490.4,434,482.1,427.4,474.5,420.2z M415.2,401.5c6.3,0.2,11.7,5.5,11.6,11.4c0,6.3-5.5,11.7-11.9,11.6
		c-6.2-0.1-11.3-5.4-11.2-11.6C403.8,406.6,409.1,401.3,415.2,401.5z M326.3,401.5c5.9,0.1,11.7,5.7,11.7,11.5
		c0.1,6.1-5.6,11.6-12,11.5c-6.5,0-11-4.8-11-11.6C315,406.4,319.9,401.4,326.3,401.5z M375.4,483.6c-33.2,0.9-62.7-8-82.9-36.8
		c21,6.7,38.8,1.5,54.4-13.1c9-8.5,19.2-14.4,31.5-10.1c7.1,2.5,13.5,7.7,19.3,12.7c10.9,9.1,22.9,14.1,37.1,12.9
		c4.7-0.4,9.3-1.8,15-3C431.2,472.3,405.4,482.7,375.4,483.6z"/>
	<path class="st0" d="M512.4,420.5c1.3-4.2-0.3-6.7-3.3-9.4c-5.7-5.3-11.6-10.7-16.3-16.9c-9.7-12.9-18.7-26.3-27.8-39.6
		c-0.8-1.1-0.2-3.8,0.6-5.3c12.2-21.7,10.1-43.4,0.6-65.3c-1.1-2.5-2.5-3-5-2.6c-22.5,3.6-43.3,10.6-59.4,27.9
		c-0.8,0.9-2.9,1.4-4.1,1.2c-17.5-4-35-3.9-52.5-0.1c-1.8,0.4-4.7-0.3-5.9-1.5c-16.3-17-36.9-24.4-59.7-26.9c-1.3-0.1-3.5,1.1-4,2.2
		c-9.7,21.7-12.1,43.5,0.5,65.1c1.4,2.5,1.6,4.3-0.2,6.7c-4.9,6.9-9.6,14-14.3,21.1c-9.1,13.7-19.4,26.2-32.8,36
		c-0.9,0.7-2.1,2.1-2,3l0,0.1c0.7,7.2,8.9,10.9,14.8,6.7c5.1-3.7,9.8-7.7,14.4-11.9c13.4-12.3,23.3-27.3,33.4-42.2
		c24.6-36.7,71.6-49.3,110.5-37.9c25.9,7.6,44.4,24.2,58.7,46.3c9.6,15,21,28.4,34.3,40.1c2.8,2.5,5.8,4.8,8.9,7.1
		C505.5,427.1,510.9,425.2,512.4,420.5C512.4,420.5,512.4,420.5,512.4,420.5z M308.2,318.5c-4-2.2-8.3-3.9-12.9-6.1
		c-2.8,5.7-3.2,10.9-1,15.4c2.7,5.5,1,8.6-3.6,11.3c-8.7-6.9-8.7-28.2-3.5-38.5c11.1,0.8,28.2,8.4,35.7,15.7
		C316.8,322.2,315.2,322.3,308.2,318.5z M451.1,339.5c-4.3-2.5-5.8-5-4.3-10.2c1.4-4.9,0.3-10.6,0.3-17.3c-5,2.3-9.4,3.3-12.6,5.9
		c-5.8,4.7-10.7,3.6-16.1-1.1c9.9-9.4,22-14.1,35-16.8C460.2,310.5,459.1,329.4,451.1,339.5z"/>
	<path class="st0" d="M524.1,363.6c0.1,4.9,3.8,8.5,8.6,8.5c5.1,0,9.2-4.1,9.2-9.2c0-4.7-4.2-8.6-9.2-8.4
		C527.7,354.6,524,358.6,524.1,363.6z"/>
	<path class="st0" d="M200.3,363.6c0.1,4.9,3.8,8.5,8.6,8.5c5.1,0,9.2-4.1,9.2-9.2c0-4.7-4.2-8.6-9.2-8.4
		C203.9,354.6,200.2,358.6,200.3,363.6z"/>
	<path class="st0" d="M380.5,442.4c-3.3-0.4-6.6-0.1-9.9-0.1c0-0.1,0-0.2,0-0.2c-2.7,0-5.3-0.1-8,0c-6.7,0.2-10.1,5-6.5,10.7
		c1.5,2.3,3.4,4.4,5.5,6.3c4.9,4.4,12.9,4.5,17.7,0c2.4-2.2,4.6-4.5,6.4-7.1C388.9,447.6,386,443,380.5,442.4z"/>
</g>
</svg>
