<svg width="63" height="63" viewBox="0 0 63 63" fill="none" xmlns="http://www.w3.org/2000/svg">
<circle cx="31.5" cy="31.5" r="31.5" fill="#E0E8EE"/>
<mask id="mask0_60_1441" style="mask-type:alpha" maskUnits="userSpaceOnUse" x="17" y="17" width="30" height="30">
<rect x="17" y="17" width="30" height="30" fill="#D9D9D9"/>
</mask>
<g mask="url(#mask0_60_1441)">
<path d="M20.75 42C20.0625 42 19.474 41.7552 18.9844 41.2656C18.4948 40.776 18.25 40.1875 18.25 39.5V25.75H20.75V39.5H42V42H20.75ZM25.75 37C25.0625 37 24.474 36.7552 23.9844 36.2656C23.4948 35.776 23.25 35.1875 23.25 34.5V24.5C23.25 23.8125 23.4948 23.224 23.9844 22.7344C24.474 22.2448 25.0625 22 25.75 22H43.25C43.9375 22 44.526 22.2448 45.0156 22.7344C45.5052 23.224 45.75 23.8125 45.75 24.5V34.5C45.75 35.1875 45.5052 35.776 45.0156 36.2656C44.526 36.7552 43.9375 37 43.25 37H25.75ZM28.25 34.5C28.25 33.8125 28.0052 33.224 27.5156 32.7344C27.026 32.2448 26.4375 32 25.75 32V34.5H28.25ZM40.75 34.5H43.25V32C42.5625 32 41.974 32.2448 41.4844 32.7344C40.9948 33.224 40.75 33.8125 40.75 34.5ZM34.5 33.25C35.5417 33.25 36.4271 32.8854 37.1562 32.1562C37.8854 31.4271 38.25 30.5417 38.25 29.5C38.25 28.4583 37.8854 27.5729 37.1562 26.8438C36.4271 26.1146 35.5417 25.75 34.5 25.75C33.4583 25.75 32.5729 26.1146 31.8438 26.8438C31.1146 27.5729 30.75 28.4583 30.75 29.5C30.75 30.5417 31.1146 31.4271 31.8438 32.1562C32.5729 32.8854 33.4583 33.25 34.5 33.25ZM25.75 27C26.4375 27 27.026 26.7552 27.5156 26.2656C28.0052 25.776 28.25 25.1875 28.25 24.5H25.75V27ZM43.25 27V24.5H40.75C40.75 25.1875 40.9948 25.776 41.4844 26.2656C41.974 26.7552 42.5625 27 43.25 27Z" fill="#5164F1"/>
</g>
</svg>
