<svg width="30" height="30" viewBox="0 0 30 30" fill="none" xmlns="http://www.w3.org/2000/svg">
<mask id="mask0_60_1460" style="mask-type:alpha" maskUnits="userSpaceOnUse" x="0" y="0" width="30" height="30">
<rect width="30" height="30" fill="#D9D9D9"/>
</mask>
<g mask="url(#mask0_60_1460)">
<path d="M3.75 25C3.0625 25 2.47396 24.7552 1.98438 24.2656C1.49479 23.776 1.25 23.1875 1.25 22.5V8.75H3.75V22.5H25V25H3.75ZM8.75 20C8.0625 20 7.47396 19.7552 6.98438 19.2656C6.49479 18.776 6.25 18.1875 6.25 17.5V7.5C6.25 6.8125 6.49479 6.22396 6.98438 5.73438C7.47396 5.24479 8.0625 5 8.75 5H26.25C26.9375 5 27.526 5.24479 28.0156 5.73438C28.5052 6.22396 28.75 6.8125 28.75 7.5V17.5C28.75 18.1875 28.5052 18.776 28.0156 19.2656C27.526 19.7552 26.9375 20 26.25 20H8.75ZM11.25 17.5C11.25 16.8125 11.0052 16.224 10.5156 15.7344C10.026 15.2448 9.4375 15 8.75 15V17.5H11.25ZM23.75 17.5H26.25V15C25.5625 15 24.974 15.2448 24.4844 15.7344C23.9948 16.224 23.75 16.8125 23.75 17.5ZM17.5 16.25C18.5417 16.25 19.4271 15.8854 20.1562 15.1562C20.8854 14.4271 21.25 13.5417 21.25 12.5C21.25 11.4583 20.8854 10.5729 20.1562 9.84375C19.4271 9.11458 18.5417 8.75 17.5 8.75C16.4583 8.75 15.5729 9.11458 14.8438 9.84375C14.1146 10.5729 13.75 11.4583 13.75 12.5C13.75 13.5417 14.1146 14.4271 14.8438 15.1562C15.5729 15.8854 16.4583 16.25 17.5 16.25ZM8.75 10C9.4375 10 10.026 9.75521 10.5156 9.26562C11.0052 8.77604 11.25 8.1875 11.25 7.5H8.75V10ZM26.25 10V7.5H23.75C23.75 8.1875 23.9948 8.77604 24.4844 9.26562C24.974 9.75521 25.5625 10 26.25 10Z" fill="#5164F1"/>
</g>
</svg>
