<svg width="30" height="30" viewBox="0 0 30 30" fill="none" xmlns="http://www.w3.org/2000/svg">
<mask id="mask0_60_1520" style="mask-type:alpha" maskUnits="userSpaceOnUse" x="0" y="0" width="30" height="30">
<rect width="30" height="30" fill="#D9D9D9"/>
</mask>
<g mask="url(#mask0_60_1520)">
<path d="M2.5 30V25H27.5V30H2.5ZM5 22.5V17.1875L19 3.21875C19.2292 2.98958 19.4948 2.8125 19.7969 2.6875C20.099 2.5625 20.4167 2.5 20.75 2.5C21.0833 2.5 21.4062 2.5625 21.7188 2.6875C22.0312 2.8125 22.3125 3 22.5625 3.25L24.2813 5C24.5313 5.22917 24.7135 5.5 24.8281 5.8125C24.9427 6.125 25 6.44792 25 6.78125C25 7.09375 24.9427 7.40104 24.8281 7.70312C24.7135 8.00521 24.5313 8.28125 24.2813 8.53125L10.3125 22.5H5ZM20.75 8.5L22.5 6.75L20.75 5L19 6.75L20.75 8.5Z" fill="white"/>
</g>
</svg>
