<svg width="85" height="101" viewBox="0 0 85 101" fill="none" xmlns="http://www.w3.org/2000/svg">
<circle cx="42.5319" cy="42.2819" r="42.2819" fill="#E0E8EE"/>
<g filter="url(#filter0_i_2018_442)">
<mask id="mask0_2018_442" style="mask-type:alpha" maskUnits="userSpaceOnUse" x="20" y="23" width="47" height="38">
<rect x="20" y="23" width="46.0403" height="37.2081" fill="#D9D9D9"/>
</mask>
<g mask="url(#mask0_2018_442)">
<path d="M23.9581 45.3602V32.4149H27.7919V45.3602H23.9581ZM58.4622 50.9082V37.9628H62.296V50.9082H58.4622ZM35.4595 60.1548C34.4052 60.1548 33.5026 59.7926 32.7519 59.0683C32.0011 58.344 31.6257 57.4733 31.6257 56.4561V26.8669C31.6257 25.8497 32.0011 24.979 32.7519 24.2547C33.5026 23.5304 34.4052 23.1682 35.4595 23.1682H50.7947C51.849 23.1682 52.7515 23.5304 53.5023 24.2547C54.2531 24.979 54.6285 25.8497 54.6285 26.8669V56.4561C54.6285 57.4733 54.2531 58.344 53.5023 59.0683C52.7515 59.7926 51.849 60.1548 50.7947 60.1548H35.4595ZM35.4595 50.9082H50.7947V32.4149H35.4595V50.9082Z" fill="#5164F1"/>
</g>
</g>
<defs>
<filter id="filter0_i_2018_442" x="23.9581" y="23.1682" width="38.338" height="40.745" filterUnits="userSpaceOnUse" color-interpolation-filters="sRGB">
<feFlood flood-opacity="0" result="BackgroundImageFix"/>
<feBlend mode="normal" in="SourceGraphic" in2="BackgroundImageFix" result="shape"/>
<feColorMatrix in="SourceAlpha" type="matrix" values="0 0 0 0 0 0 0 0 0 0 0 0 0 0 0 0 0 0 127 0" result="hardAlpha"/>
<feOffset dy="3.75839"/>
<feGaussianBlur stdDeviation="1.87919"/>
<feComposite in2="hardAlpha" operator="arithmetic" k2="-1" k3="1"/>
<feColorMatrix type="matrix" values="0 0 0 0 0.238333 0 0 0 0 0.238333 0 0 0 0 0.238333 0 0 0 0.25 0"/>
<feBlend mode="normal" in2="shape" result="effect1_innerShadow_2018_442"/>
</filter>
</defs>
</svg>
