<svg width="85" height="101" viewBox="0 0 85 101" fill="none" xmlns="http://www.w3.org/2000/svg">
<circle cx="42.5319" cy="42.2819" r="42.2819" fill="#E0E8EE"/>
<g filter="url(#filter0_i_2018_391)">
<path d="M39.0495 50.7773C39.0495 47.5533 39.3381 45.2348 39.9152 43.8218C40.4924 42.4089 41.7163 40.8665 43.587 39.1948C45.2189 37.7619 46.4627 36.5181 47.3185 35.4633C48.1742 34.4086 48.6021 33.2046 48.6021 31.8513C48.6021 30.2194 48.0548 28.8661 46.9603 27.7914C45.8657 26.7168 44.3432 26.1794 42.3929 26.1794C40.363 26.1794 38.8207 26.7964 37.7659 28.0302C36.7111 29.2641 35.9648 30.5179 35.527 31.7916L29.3775 29.1646C30.2134 26.6173 31.7458 24.4082 33.9747 22.5375C36.2037 20.6668 39.0097 19.7314 42.3929 19.7314C46.5722 19.7314 49.7862 20.8957 52.0351 23.2241C54.2839 25.5525 55.4083 28.3487 55.4083 31.6125C55.4083 33.6026 54.9804 35.3041 54.1247 36.7171C53.2689 38.1301 51.9256 39.7321 50.0947 41.5233C48.1444 43.394 46.9603 44.8169 46.5423 45.7921C46.1244 46.7672 45.9154 48.429 45.9154 50.7773H39.0495ZM42.3929 65.1062C41.0794 65.1062 39.955 64.6385 39.0197 63.7031C38.0843 62.7678 37.6166 61.6434 37.6166 60.3299C37.6166 59.0164 38.0843 57.892 39.0197 56.9566C39.955 56.0213 41.0794 55.5536 42.3929 55.5536C43.7064 55.5536 44.8308 56.0213 45.7662 56.9566C46.7015 57.892 47.1692 59.0164 47.1692 60.3299C47.1692 61.6434 46.7015 62.7678 45.7662 63.7031C44.8308 64.6385 43.7064 65.1062 42.3929 65.1062Z" fill="#5164F1"/>
</g>
<defs>
<filter id="filter0_i_2018_391" x="29.3775" y="19.7314" width="26.0308" height="49.1331" filterUnits="userSpaceOnUse" color-interpolation-filters="sRGB">
<feFlood flood-opacity="0" result="BackgroundImageFix"/>
<feBlend mode="normal" in="SourceGraphic" in2="BackgroundImageFix" result="shape"/>
<feColorMatrix in="SourceAlpha" type="matrix" values="0 0 0 0 0 0 0 0 0 0 0 0 0 0 0 0 0 0 127 0" result="hardAlpha"/>
<feOffset dy="3.75839"/>
<feGaussianBlur stdDeviation="1.87919"/>
<feComposite in2="hardAlpha" operator="arithmetic" k2="-1" k3="1"/>
<feColorMatrix type="matrix" values="0 0 0 0 0.238333 0 0 0 0 0.238333 0 0 0 0 0.238333 0 0 0 0.25 0"/>
<feBlend mode="normal" in2="shape" result="effect1_innerShadow_2018_391"/>
</filter>
</defs>
</svg>
