<svg width="30" height="30" viewBox="0 0 30 30" fill="none" xmlns="http://www.w3.org/2000/svg">
<mask id="mask0_60_1532" style="mask-type:alpha" maskUnits="userSpaceOnUse" x="0" y="0" width="30" height="30">
<rect width="30" height="30" fill="#D9D9D9"/>
</mask>
<g mask="url(#mask0_60_1532)">
<path d="M16.25 28.75V24.9063L23.1562 18.0312C23.3438 17.8438 23.5521 17.7083 23.7812 17.625C24.0104 17.5417 24.2396 17.5 24.4688 17.5C24.7188 17.5 24.9583 17.5469 25.1875 17.6406C25.4167 17.7344 25.625 17.875 25.8125 18.0625L26.9688 19.2188C27.1354 19.4062 27.2656 19.6146 27.3594 19.8438C27.4531 20.0729 27.5 20.3021 27.5 20.5312C27.5 20.7604 27.4583 20.9948 27.375 21.2344C27.2917 21.474 27.1563 21.6875 26.9688 21.875L20.0938 28.75H16.25ZM7.5 12.5H18.75V7.5H7.5V12.5ZM24.4688 21.75L25.625 20.5312L24.4688 19.375L23.2812 20.5625L24.4688 21.75ZM13.75 26.25H6.25C5.5625 26.25 4.97396 26.0052 4.48438 25.5156C3.99479 25.026 3.75 24.4375 3.75 23.75V6.25C3.75 5.5625 3.99479 4.97396 4.48438 4.48438C4.97396 3.99479 5.5625 3.75 6.25 3.75H21.25L26.25 8.75V15.375C25.8542 15.2083 25.4427 15.099 25.0156 15.0469C24.5885 14.9948 24.1667 15 23.75 15.0625C23.3333 15.125 22.9271 15.2552 22.5312 15.4531C22.1354 15.651 21.7708 15.9062 21.4375 16.2188L18.75 18.9062V18.75C18.75 17.7083 18.3854 16.8229 17.6562 16.0938C16.9271 15.3646 16.0417 15 15 15C13.9583 15 13.0729 15.3646 12.3438 16.0938C11.6146 16.8229 11.25 17.7083 11.25 18.75C11.25 19.7917 11.6146 20.6771 12.3438 21.4062C13.0729 22.1354 13.9583 22.5 15 22.5H15.125L13.75 23.875V26.25Z" fill="white"/>
</g>
</svg>
