<svg width="85" height="101" viewBox="0 0 85 101" fill="none" xmlns="http://www.w3.org/2000/svg">
<circle cx="42.5319" cy="42.2819" r="42.2819" fill="#E0E8EE"/>
<g filter="url(#filter0_i_2018_425)">
<mask id="mask0_2018_425" style="mask-type:alpha" maskUnits="userSpaceOnUse" x="19" y="18" width="47" height="40">
<rect x="19" y="18.792" width="46.0403" height="39.2081" fill="#D9D9D9"/>
</mask>
<g mask="url(#mask0_2018_425)">
<path d="M20.9028 60.8531V55.3966C20.9028 54.2924 21.1823 53.2774 21.7414 52.3517C22.3005 51.4261 23.0433 50.7197 23.9698 50.2325C25.9506 49.2256 27.9634 48.4705 30.0081 47.9671C32.0527 47.4637 34.1294 47.212 36.238 47.212C38.3466 47.212 40.4232 47.4637 42.4679 47.9671C44.5126 48.4705 46.5253 49.2256 48.5061 50.2325C49.4326 50.7197 50.1754 51.4261 50.7345 52.3517C51.2936 53.2774 51.5732 54.2924 51.5732 55.3966V60.8531H20.9028ZM55.407 60.8531V55.0069C55.407 53.5778 55.0156 52.2056 54.2329 50.8902C53.4501 49.5748 52.3399 48.4461 50.9022 47.5043C52.5316 47.6991 54.0651 48.032 55.5028 48.503C56.9405 48.9739 58.2823 49.5504 59.5283 50.2325C60.6784 50.8821 61.557 51.6047 62.164 52.4005C62.771 53.1962 63.0745 54.065 63.0745 55.0069V60.8531H55.407ZM36.238 45.2632C34.1294 45.2632 32.3243 44.5 30.8227 42.9735C29.3212 41.4469 28.5704 39.6119 28.5704 37.4683C28.5704 35.3247 29.3212 33.4896 30.8227 31.9631C32.3243 30.4366 34.1294 29.6733 36.238 29.6733C38.3466 29.6733 40.1516 30.4366 41.6532 31.9631C43.1548 33.4896 43.9056 35.3247 43.9056 37.4683C43.9056 39.6119 43.1548 41.4469 41.6532 42.9735C40.1516 44.5 38.3466 45.2632 36.238 45.2632ZM55.407 37.4683C55.407 39.6119 54.6562 41.4469 53.1546 42.9735C51.653 44.5 49.8479 45.2632 47.7394 45.2632C47.3879 45.2632 46.9407 45.2226 46.3975 45.1414C45.8544 45.0602 45.4071 44.9709 45.0557 44.8735C45.9183 43.8341 46.5812 42.6811 47.0445 41.4145C47.5077 40.1478 47.7394 38.8324 47.7394 37.4683C47.7394 36.1042 47.5077 34.7888 47.0445 33.5221C46.5812 32.2554 45.9183 31.1024 45.0557 30.0631C45.503 29.9007 45.9503 29.7951 46.3975 29.7464C46.8448 29.6977 47.2921 29.6733 47.7394 29.6733C49.8479 29.6733 51.653 30.4366 53.1546 31.9631C54.6562 33.4896 55.407 35.3247 55.407 37.4683Z" fill="#5164F1"/>
</g>
</g>
<defs>
<filter id="filter0_i_2018_425" x="20.9028" y="29.6733" width="42.1718" height="32.085" filterUnits="userSpaceOnUse" color-interpolation-filters="sRGB">
<feFlood flood-opacity="0" result="BackgroundImageFix"/>
<feBlend mode="normal" in="SourceGraphic" in2="BackgroundImageFix" result="shape"/>
<feColorMatrix in="SourceAlpha" type="matrix" values="0 0 0 0 0 0 0 0 0 0 0 0 0 0 0 0 0 0 127 0" result="hardAlpha"/>
<feOffset dy="3.75839"/>
<feGaussianBlur stdDeviation="1.87919"/>
<feComposite in2="hardAlpha" operator="arithmetic" k2="-1" k3="1"/>
<feColorMatrix type="matrix" values="0 0 0 0 0.238333 0 0 0 0 0.238333 0 0 0 0 0.238333 0 0 0 0.25 0"/>
<feBlend mode="normal" in2="shape" result="effect1_innerShadow_2018_425"/>
</filter>
</defs>
</svg>
