<svg width="1512" height="1197" viewBox="0 0 1512 1197" fill="none" xmlns="http://www.w3.org/2000/svg">
<path opacity="0.05" fill-rule="evenodd" clip-rule="evenodd" d="M1564.82 424.213C1564.82 424.213 1166.45 552.295 816.087 524.916C465.726 497.538 356.405 574.327 124.579 576.528C-107.247 578.728 -79.5599 722.402 -79.5599 722.402L-172.084 1030.21C-172.084 1030.21 -175.095 966.334 118.827 1025.29C412.748 1084.25 752.011 1009.56 1004.67 1007.16C1257.33 1004.77 1556.73 1055.16 1556.73 1055.16L1564.82 424.213Z" fill="#0144BC"/>
<path opacity="0.1" fill-rule="evenodd" clip-rule="evenodd" d="M1633.5 371C1633.5 371 1212.99 519.086 862.579 490.445C512.173 461.804 320.079 547.962 88.2527 550.151C-143.573 552.34 -32.7886 695.55 -32.7886 695.55L-127.601 1132.91C-127.601 1132.91 -84.1754 1019.36 209.838 1080.83C503.85 1142.31 790.476 1024.43 1043.13 1022.04C1295.79 1019.66 1560.65 1053.06 1560.65 1053.06L1633.5 371Z" fill="#80B4E3"/>
</svg>
