<svg width="414" height="308" viewBox="0 0 414 308" fill="none" xmlns="http://www.w3.org/2000/svg">
<path opacity="0.563035" fill-rule="evenodd" clip-rule="evenodd" d="M-133.285 -80.1511L334.858 -295.257L506.515 78.3268C506.515 78.3268 563.117 143.85 408.556 85.1904C253.994 26.5305 183.176 148.928 100.644 128.485C18.1123 108.042 -93.8957 -35.2674 -178.164 -38.3316C-262.433 -41.3957 -133.285 -80.1511 -133.285 -80.1511Z" fill="#80B4E3"/>
<path fill-rule="evenodd" clip-rule="evenodd" d="M-99.756 -96.3271L304.57 -282.11L467.703 72.9028C467.703 72.9028 533.319 128.916 385.574 65.5364C237.828 2.15662 168.521 116.728 97.489 99.6135C26.4567 82.4993 -36.6269 0.682631 -109.23 -1.57566C-181.833 -3.83395 -99.756 -96.3271 -99.756 -96.3271Z" fill="url(#paint0_linear_2018_366)"/>
<defs>
<linearGradient id="paint0_linear_2018_366" x1="28.5079" y1="-709.112" x2="-75.7263" y2="-133.818" gradientUnits="userSpaceOnUse">
<stop offset="0.641" stop-color="#0019CF"/>
<stop offset="1" stop-color="#5164F1"/>
</linearGradient>
</defs>
</svg>
