<svg width="1512" height="1534" viewBox="0 0 1512 1534" fill="none" xmlns="http://www.w3.org/2000/svg">
<path opacity="0.05" fill-rule="evenodd" clip-rule="evenodd" d="M1528.82 399.5C1528.82 399.5 1132.04 608.242 781.287 561.683C430.532 515.123 322.182 640.848 90.3562 643.433C-141.47 646.017 -111.937 882.284 -111.937 882.284L-200.527 1387.79C-200.527 1387.79 -204.357 1282.79 90.3562 1381C385.069 1479.21 723.415 1357.96 976.073 1355.15C1228.73 1352.33 1528.82 1436.5 1528.82 1436.5L1528.82 399.5Z" fill="#0144BC"/>
<path opacity="0.1" fill-rule="evenodd" clip-rule="evenodd" d="M1597.5 337C1597.5 337 1178.56 569.325 827.802 522.766C477.048 476.206 285.873 611.574 54.0472 614.158C-177.779 616.743 -65.4218 843.367 -65.4218 843.367L-155.477 1533.84C-155.477 1533.84 -113.285 1354.64 181.428 1452.86C476.141 1551.07 761.511 1365.95 1014.17 1363.13C1266.83 1360.32 1532.07 1414.06 1532.07 1414.06L1597.5 337Z" fill="#80B4E3"/>
</svg>
